<?xml version="1.0" encoding="UTF-8" standalone="no"?><!DOCTYPE svg PUBLIC "-//W3C//DTD SVG 1.1//EN" "http://www.w3.org/Graphics/SVG/1.1/DTD/svg11.dtd"><svg width="100%" height="100%" viewBox="0 0 596 420" version="1.1" xmlns="http://www.w3.org/2000/svg" xmlns:xlink="http://www.w3.org/1999/xlink" xml:space="preserve" xmlns:serif="http://www.serif.com/" style="fill-rule:evenodd;clip-rule:evenodd;stroke-linecap:round;stroke-linejoin:round;stroke-miterlimit:1.5;"><ellipse id="Sea" cx="290.141" cy="204.012" rx="134.522" ry="131.387" style="fill:#006dff;"/><path id="Land" d="M357.283,189.802c-8.465,-2.461 5.675,14.49 -16.537,6.582c-13.541,-4.821 -8.922,-8.123 -7.406,-14.829c0.893,-3.954 -7.352,-10.017 -12.451,-10.889c-28.317,-4.845 -28.13,-8.884 -24.592,-5.771c-22.176,6.179 -26.026,6.324 -28.858,11.102l-21.27,23.299l-10.699,22.061l10.931,18.951l16.769,6.877l21.99,1.39l17.014,69.295l11.341,15.242l26.704,-15.454l23.48,-47.85l10.045,-23.79l14.676,-23.586l10.432,-14.481l-7.182,-13.129l-17.111,1.535c0,0 4.909,-0.106 -17.276,-6.555Zm-137.747,-96.29c10.618,15.954 6.557,24.39 6.557,24.39l-12.527,7.371l-6.897,6.657l-2.69,8.031l0.335,4.218l-7.746,1.105l-2.893,-8.3l0.027,-9.791l-3.393,0l-0.306,3.804l-1.684,6.652l-0.856,3.956l-3.571,4.029l-3.348,-5.565l-4.718,0.847l-2.53,6.822l1.924,7.503l-7.754,0.776l-1.245,9.805l-4.901,16.285l-0.311,16.543l9.13,17.006l6.869,18.478l12.677,22.448l2.148,14.885l-9.045,2.739l2.82,6.065l4.025,8.033l0.481,1.664l-0.511,0.936c-1.644,-0.588 -6.989,-7.695 -10.742,-13.348c-3.295,-4.408 -6.546,-9.968 -9.343,-15.89c-3.061,-5.591 -5.674,-11.517 -7.279,-17.444c-1.496,-3.603 -2.765,-8.234 -3.837,-14.252c-1.268,-5.047 -2.059,-11.75 -2.437,-18.515c-0.612,-5.534 -0.462,-12.57 0.282,-18.652c0.302,-6.877 2,-15.841 4.178,-23.104c1.835,-7.36 5.696,-17.662 10.851,-27.139c4.435,-7.946 10.228,-17.122 17.452,-24.373c4.102,-5.035 8.253,-9.093 12.812,-12.856l9.421,-7.385l6.952,-4.592l2.672,1.785m89.621,50.686l-8.911,10.204l-13.978,2.694l-10.617,-7.915l-3.538,-12.823l7.901,-8.932l11.323,-1.74l9.848,0.756l15.854,-5.196l3.984,-11.069l-1.115,-9.57l-1.705,-6.39l22.544,-1.919l9.819,-1.492l4.514,-2.898c7.03,3.998 14.155,8.91 21.38,14.788c4.181,3.485 8.064,7.128 11.636,10.936l8.672,9.938l-9.837,0.774l-28.276,3.5l-15.857,2.305l-17.619,-0.148l-9.023,7.505l-6.999,6.692Zm20.675,-13.997l11.86,5.35l9.698,14.468l1.058,14.207l-0.572,3.346l4.883,1.541l4.427,-5.863l0.18,-7.398l-0.186,-5.327l1.221,-5.628l5.243,1.526l0.69,-3.353l-4.663,-4.064l-7.569,-4.422l-2.74,-6.029l-11.902,1.289l-11.628,0.357Zm30.25,-2.73l9.203,4.355l2.646,10.366l2.801,13.354l12.465,4.56l4.295,-10.36l-4.816,-6.585l-0.171,-4.109l5.986,-1.073l10.499,-5.272c-2.917,-4.605 -3.464,-5.536 -6.88,-9.729l-36.028,4.493Z" style="fill:#046500;stroke:#006dff;stroke-width:0.24px;"/><path id="Air" d="M396.72,180.884c10.566,1.157 18.91,2.113 24.861,0.368c3.799,-1.115 -12.662,-43.777 -15.66,-42.905l-5.174,-4.002l-33.596,-9.466c-22.47,-0.402 -29.118,8.459 -22.975,24.809c0,0 11.443,19.749 23.262,23.892c17.807,1.294 25.162,4.069 29.282,7.304Zm-1.465,61.991l-24.438,-7.748l-28.786,-28.198l-56.739,0.5l-20.41,15.455l-27.068,12.881l-11.698,-22.99l21.74,-16.009l-11.593,-14.097l-21.639,3.952l-17.736,28.72l5.348,25.6l11.719,22.004l-7.61,10.423l7.904,19.322l42.714,4.223l23.328,-17.721l35.268,-20.21l16.225,26.972l18.749,11.843l32.345,-7.053l19.903,-32.64l-7.526,-15.229Zm-90.659,-103.766c-11.517,-0.493 -32.421,-0.197 -32.421,-0.197l-8.461,-13.888l-0.26,-18.48l-10.258,-9.049l-20.966,-0.417l-16.773,13.602l4.28,16.934l-17.038,13.513l-22.017,9.634c-12.546,11.325 -11.79,18.242 5.822,19.572c18.971,-11.149 35.009,-28.697 45.993,-24.553c16.55,1.293 23.386,4.069 27.214,7.303l19.547,7.962l18.595,0.735l11.004,-7.135c0,0 7.257,-15.044 -4.261,-15.536Z" style="fill:#dfdfdf;fill-opacity:0.83;stroke:#e0e0e0;stroke-opacity:0.84;stroke-width:0.24px;"/></svg>