<?xml version="1.0" encoding="UTF-8" standalone="no"?>
<!-- Created with Inkscape (http://www.inkscape.org/) -->

<svg
   xmlns:dc="http://purl.org/dc/elements/1.1/"
   xmlns:cc="http://creativecommons.org/ns#"
   xmlns:rdf="http://www.w3.org/1999/02/22-rdf-syntax-ns#"
   xmlns:svg="http://www.w3.org/2000/svg"
   xmlns="http://www.w3.org/2000/svg"
   xmlns:sodipodi="http://sodipodi.sourceforge.net/DTD/sodipodi-0.dtd"
   xmlns:inkscape="http://www.inkscape.org/namespaces/inkscape"
   width="219.17596mm"
   height="190.96968mm"
   viewBox="0 0 219.17596 190.96968"
   version="1.1"
   id="svg8"
   inkscape:version="0.92.0 r15299"
   sodipodi:docname="iss.svg">
  <defs
     id="defs2">
    <clipPath
       id="clipPath4511"
       clipPathUnits="userSpaceOnUse">
      <path
         style="clip-rule:evenodd"
         inkscape:connector-curvature="0"
         id="path4509"
         d="m 447.09,679.65 h 88.44 v 25.08 h -88.44 z" />
    </clipPath>
    <clipPath
       id="clipPath4523"
       clipPathUnits="userSpaceOnUse">
      <path
         style="clip-rule:evenodd"
         inkscape:connector-curvature="0"
         id="path4521"
         d="m 447.09,679.65 h 88.44 v 25.08 h -88.44 z" />
    </clipPath>
    <clipPath
       id="clipPath4531"
       clipPathUnits="userSpaceOnUse">
      <path
         style="clip-rule:evenodd"
         inkscape:connector-curvature="0"
         id="path4529"
         d="m 447.09,679.65 h 88.44 v 25.08 h -88.44 z" />
    </clipPath>
    <clipPath
       id="clipPath4543"
       clipPathUnits="userSpaceOnUse">
      <path
         style="clip-rule:evenodd"
         inkscape:connector-curvature="0"
         id="path4541"
         d="m 447.09,679.65 h 88.44 v 25.08 h -88.44 z" />
    </clipPath>
    <clipPath
       id="clipPath4551"
       clipPathUnits="userSpaceOnUse">
      <path
         style="clip-rule:evenodd"
         inkscape:connector-curvature="0"
         id="path4549"
         d="m 447.09,679.65 h 88.44 v 25.08 h -88.44 z" />
    </clipPath>
    <clipPath
       id="clipPath4563"
       clipPathUnits="userSpaceOnUse">
      <path
         style="clip-rule:evenodd"
         inkscape:connector-curvature="0"
         id="path4561"
         d="m 447.09,679.65 h 88.44 v 25.08 h -88.44 z" />
    </clipPath>
    <clipPath
       id="clipPath4575"
       clipPathUnits="userSpaceOnUse">
      <path
         style="clip-rule:evenodd"
         inkscape:connector-curvature="0"
         id="path4573"
         d="m 447.09,679.65 h 88.44 v 25.08 h -88.44 z" />
    </clipPath>
    <clipPath
       id="clipPath4587"
       clipPathUnits="userSpaceOnUse">
      <path
         style="clip-rule:evenodd"
         inkscape:connector-curvature="0"
         id="path4585"
         d="m 447.09,679.65 h 88.44 v 25.08 h -88.44 z" />
    </clipPath>
    <clipPath
       id="clipPath4599"
       clipPathUnits="userSpaceOnUse">
      <path
         style="clip-rule:evenodd"
         inkscape:connector-curvature="0"
         id="path4597"
         d="m 447.09,679.65 h 88.44 v 25.08 h -88.44 z" />
    </clipPath>
    <clipPath
       id="clipPath4609"
       clipPathUnits="userSpaceOnUse">
      <path
         inkscape:connector-curvature="0"
         id="path4607"
         d="M 0,0 H 845.35 V 475.87 H 0 Z" />
    </clipPath>
    <clipPath
       id="clipPath4635"
       clipPathUnits="userSpaceOnUse">
      <path
         style="clip-rule:evenodd"
         inkscape:connector-curvature="0"
         id="path4633"
         d="m 305.57,735.7 h 70.464 v 70.464 H 305.57 Z" />
    </clipPath>
    <clipPath
       id="clipPath4647"
       clipPathUnits="userSpaceOnUse">
      <path
         style="clip-rule:evenodd"
         inkscape:connector-curvature="0"
         id="path4645"
         d="m 305.57,735.7 h 70.464 v 70.464 H 305.57 Z" />
    </clipPath>
    <clipPath
       id="clipPath4655"
       clipPathUnits="userSpaceOnUse">
      <path
         style="clip-rule:evenodd"
         inkscape:connector-curvature="0"
         id="path4653"
         d="m 305.57,735.69 h 70.47 v 70.47 h -70.47 z" />
    </clipPath>
    <clipPath
       id="clipPath4663"
       clipPathUnits="userSpaceOnUse">
      <path
         style="clip-rule:evenodd"
         inkscape:connector-curvature="0"
         id="path4661"
         d="m 305.57,735.69 h 70.47 v 70.47 h -70.47 z" />
    </clipPath>
    <clipPath
       id="clipPath4671"
       clipPathUnits="userSpaceOnUse">
      <path
         style="clip-rule:evenodd"
         inkscape:connector-curvature="0"
         id="path4669"
         d="m 305.57,735.69 h 70.47 v 70.47 h -70.47 z" />
    </clipPath>
    <clipPath
       id="clipPath4679"
       clipPathUnits="userSpaceOnUse">
      <path
         style="clip-rule:evenodd"
         inkscape:connector-curvature="0"
         id="path4677"
         d="m 305.57,735.69 h 70.47 v 70.47 h -70.47 z" />
    </clipPath>
    <clipPath
       id="clipPath4687"
       clipPathUnits="userSpaceOnUse">
      <path
         style="clip-rule:evenodd"
         inkscape:connector-curvature="0"
         id="path4685"
         d="m 376.27,735.7 h 187.82 v 70.464 H 376.27 Z" />
    </clipPath>
    <clipPath
       id="clipPath4699"
       clipPathUnits="userSpaceOnUse">
      <path
         style="clip-rule:evenodd"
         inkscape:connector-curvature="0"
         id="path4697"
         d="m 376.27,735.7 h 187.82 v 70.464 H 376.27 Z" />
    </clipPath>
    <clipPath
       id="clipPath4707"
       clipPathUnits="userSpaceOnUse">
      <path
         style="clip-rule:evenodd"
         inkscape:connector-curvature="0"
         id="path4705"
         d="m 376.27,735.7 h 187.82 v 70.464 H 376.27 Z" />
    </clipPath>
    <clipPath
       id="clipPath4719"
       clipPathUnits="userSpaceOnUse">
      <path
         style="clip-rule:evenodd"
         inkscape:connector-curvature="0"
         id="path4717"
         d="m 376.27,735.7 h 187.82 v 70.464 H 376.27 Z" />
    </clipPath>
    <clipPath
       id="clipPath4727"
       clipPathUnits="userSpaceOnUse">
      <path
         style="clip-rule:evenodd"
         inkscape:connector-curvature="0"
         id="path4725"
         d="m 376.27,735.69 h 187.82 v 70.47 H 376.27 Z" />
    </clipPath>
    <clipPath
       id="clipPath4735"
       clipPathUnits="userSpaceOnUse">
      <path
         style="clip-rule:evenodd"
         inkscape:connector-curvature="0"
         id="path4733"
         d="M 376.28,735.69 H 564.1 v 70.47 H 376.28 Z" />
    </clipPath>
    <clipPath
       id="clipPath4747"
       clipPathUnits="userSpaceOnUse">
      <path
         style="clip-rule:evenodd"
         inkscape:connector-curvature="0"
         id="path4745"
         d="M 376.28,735.69 H 564.1 v 70.47 H 376.28 Z" />
    </clipPath>
    <clipPath
       id="clipPath4755"
       clipPathUnits="userSpaceOnUse">
      <path
         style="clip-rule:evenodd"
         inkscape:connector-curvature="0"
         id="path4753"
         d="M 376.28,735.69 H 564.1 v 70.47 H 376.28 Z" />
    </clipPath>
    <clipPath
       id="clipPath4767"
       clipPathUnits="userSpaceOnUse">
      <path
         style="clip-rule:evenodd"
         inkscape:connector-curvature="0"
         id="path4765"
         d="M 376.28,735.69 H 564.1 v 70.47 H 376.28 Z" />
    </clipPath>
    <clipPath
       id="clipPath4777"
       clipPathUnits="userSpaceOnUse">
      <path
         style="clip-rule:evenodd"
         inkscape:connector-curvature="0"
         id="path4775"
         d="M 376.28,735.69 H 564.1 v 70.47 H 376.28 Z" />
    </clipPath>
    <clipPath
       id="clipPath4789"
       clipPathUnits="userSpaceOnUse">
      <path
         style="clip-rule:evenodd"
         inkscape:connector-curvature="0"
         id="path4787"
         d="M 376.28,735.69 H 564.1 v 70.47 H 376.28 Z" />
    </clipPath>
    <clipPath
       id="clipPath4801"
       clipPathUnits="userSpaceOnUse">
      <path
         style="clip-rule:evenodd"
         inkscape:connector-curvature="0"
         id="path4799"
         d="M 376.28,735.69 H 564.1 v 70.47 H 376.28 Z" />
    </clipPath>
    <clipPath
       id="clipPath4809"
       clipPathUnits="userSpaceOnUse">
      <path
         style="clip-rule:evenodd"
         inkscape:connector-curvature="0"
         id="path4807"
         d="M 376.28,735.69 H 564.1 v 70.47 H 376.28 Z" />
    </clipPath>
    <clipPath
       id="clipPath4821"
       clipPathUnits="userSpaceOnUse">
      <path
         style="clip-rule:evenodd"
         inkscape:connector-curvature="0"
         id="path4819"
         d="M 376.28,735.69 H 564.1 v 70.47 H 376.28 Z" />
    </clipPath>
    <clipPath
       id="clipPath4831"
       clipPathUnits="userSpaceOnUse">
      <path
         style="clip-rule:evenodd"
         inkscape:connector-curvature="0"
         id="path4829"
         d="M 376.28,735.69 H 564.1 v 70.47 H 376.28 Z" />
    </clipPath>
    <clipPath
       id="clipPath4843"
       clipPathUnits="userSpaceOnUse">
      <path
         style="clip-rule:evenodd"
         inkscape:connector-curvature="0"
         id="path4841"
         d="M 376.28,735.69 H 564.1 v 70.47 H 376.28 Z" />
    </clipPath>
    <clipPath
       id="clipPath4887"
       clipPathUnits="userSpaceOnUse">
      <path
         style="clip-rule:evenodd"
         inkscape:connector-curvature="0"
         id="path4885"
         d="m 185.55,730.65 h 378.54 v 75.99 H 185.55 Z" />
    </clipPath>
    <clipPath
       id="clipPath4895"
       clipPathUnits="userSpaceOnUse">
      <path
         style="clip-rule:evenodd"
         inkscape:connector-curvature="0"
         id="path4893"
         d="m 78.03,678.93 h 459.78 v 63.72 H 78.03 Z" />
    </clipPath>
    <clipPath
       id="clipPath4907"
       clipPathUnits="userSpaceOnUse">
      <path
         style="clip-rule:evenodd"
         inkscape:connector-curvature="0"
         id="path4905"
         d="m 78.03,678.93 h 459.78 v 63.72 H 78.03 Z" />
    </clipPath>
    <clipPath
       id="clipPath4919"
       clipPathUnits="userSpaceOnUse">
      <path
         style="clip-rule:evenodd"
         inkscape:connector-curvature="0"
         id="path4917"
         d="m 78.03,678.93 h 459.78 v 63.72 H 78.03 Z" />
    </clipPath>
    <clipPath
       id="clipPath4931"
       clipPathUnits="userSpaceOnUse">
      <path
         style="clip-rule:evenodd"
         inkscape:connector-curvature="0"
         id="path4929"
         d="m 78.03,678.93 h 459.78 v 63.72 H 78.03 Z" />
    </clipPath>
    <clipPath
       id="clipPath4939"
       clipPathUnits="userSpaceOnUse">
      <path
         style="clip-rule:evenodd"
         inkscape:connector-curvature="0"
         id="path4937"
         d="m 78.03,678.93 h 459.78 v 63.72 H 78.03 Z" />
    </clipPath>
    <clipPath
       id="clipPath4951"
       clipPathUnits="userSpaceOnUse">
      <path
         style="clip-rule:evenodd"
         inkscape:connector-curvature="0"
         id="path4949"
         d="m 78.03,678.93 h 459.78 v 63.72 H 78.03 Z" />
    </clipPath>
    <clipPath
       id="clipPath4963"
       clipPathUnits="userSpaceOnUse">
      <path
         style="clip-rule:evenodd"
         inkscape:connector-curvature="0"
         id="path4961"
         d="m 78.03,678.93 h 459.78 v 63.72 H 78.03 Z" />
    </clipPath>
    <clipPath
       id="clipPath4975"
       clipPathUnits="userSpaceOnUse">
      <path
         style="clip-rule:evenodd"
         inkscape:connector-curvature="0"
         id="path4973"
         d="m 78.03,678.93 h 459.78 v 63.72 H 78.03 Z" />
    </clipPath>
    <clipPath
       id="clipPath4987"
       clipPathUnits="userSpaceOnUse">
      <path
         style="clip-rule:evenodd"
         inkscape:connector-curvature="0"
         id="path4985"
         d="m 78.03,678.93 h 459.78 v 63.72 H 78.03 Z" />
    </clipPath>
    <clipPath
       id="clipPath4995"
       clipPathUnits="userSpaceOnUse">
      <path
         style="clip-rule:evenodd"
         inkscape:connector-curvature="0"
         id="path4993"
         d="m 78.03,678.93 h 459.78 v 63.72 H 78.03 Z" />
    </clipPath>
    <clipPath
       id="clipPath5007"
       clipPathUnits="userSpaceOnUse">
      <path
         style="clip-rule:evenodd"
         inkscape:connector-curvature="0"
         id="path5005"
         d="m 78.03,678.93 h 459.78 v 63.72 H 78.03 Z" />
    </clipPath>
    <clipPath
       id="clipPath5015"
       clipPathUnits="userSpaceOnUse">
      <path
         style="clip-rule:evenodd"
         inkscape:connector-curvature="0"
         id="path5013"
         d="m 78.03,678.93 h 459.78 v 63.72 H 78.03 Z" />
    </clipPath>
    <clipPath
       id="clipPath5027"
       clipPathUnits="userSpaceOnUse">
      <path
         style="clip-rule:evenodd"
         inkscape:connector-curvature="0"
         id="path5025"
         d="m 78.03,678.93 h 459.78 v 63.72 H 78.03 Z" />
    </clipPath>
    <clipPath
       id="clipPath5039"
       clipPathUnits="userSpaceOnUse">
      <path
         style="clip-rule:evenodd"
         inkscape:connector-curvature="0"
         id="path5037"
         d="m 78.03,678.93 h 459.78 v 63.72 H 78.03 Z" />
    </clipPath>
    <clipPath
       id="clipPath8321"
       clipPathUnits="userSpaceOnUse">
      <path
         inkscape:connector-curvature="0"
         id="path8319"
         d="m 543.4,803.81 h 9.322 v 7.5 H 543.4 Z" />
    </clipPath>
    <clipPath
       id="clipPath8347"
       clipPathUnits="userSpaceOnUse">
      <path
         inkscape:connector-curvature="0"
         id="path8345"
         d="m 42.4,26.27 h 103.983 v 7.65 H 42.4 Z" />
    </clipPath>
    <clipPath
       id="clipPath8513"
       clipPathUnits="userSpaceOnUse">
      <path
         inkscape:connector-curvature="0"
         id="path8511"
         d="M 42.54,70.98 H 478.62 V 266.4 H 42.54 Z" />
    </clipPath>
    <clipPath
       id="clipPath8525"
       clipPathUnits="userSpaceOnUse">
      <path
         inkscape:connector-curvature="0"
         id="path8523"
         d="M 42.54,70.98 H 478.62 V 266.4 H 42.54 Z" />
    </clipPath>
    <clipPath
       id="clipPath8533"
       clipPathUnits="userSpaceOnUse">
      <path
         inkscape:connector-curvature="0"
         id="path8531"
         d="M 42.54,70.98 H 478.62 V 266.4 H 42.54 Z" />
    </clipPath>
    <clipPath
       id="clipPath8545"
       clipPathUnits="userSpaceOnUse">
      <path
         inkscape:connector-curvature="0"
         id="path8543"
         d="M 42.54,70.98 H 478.62 V 266.4 H 42.54 Z" />
    </clipPath>
    <clipPath
       id="clipPath8557"
       clipPathUnits="userSpaceOnUse">
      <path
         inkscape:connector-curvature="0"
         id="path8555"
         d="M 42.54,70.98 H 478.62 V 266.4 H 42.54 Z" />
    </clipPath>
    <clipPath
       id="clipPath8569"
       clipPathUnits="userSpaceOnUse">
      <path
         inkscape:connector-curvature="0"
         id="path8567"
         d="M 42.54,70.98 H 478.62 V 266.4 H 42.54 Z" />
    </clipPath>
    <clipPath
       id="clipPath8577"
       clipPathUnits="userSpaceOnUse">
      <path
         inkscape:connector-curvature="0"
         id="path8575"
         d="M 42.54,70.98 H 478.62 V 266.4 H 42.54 Z" />
    </clipPath>
    <clipPath
       id="clipPath8593"
       clipPathUnits="userSpaceOnUse">
      <path
         inkscape:connector-curvature="0"
         id="path8591"
         d="M 42.54,70.98 H 478.62 V 266.4 H 42.54 Z" />
    </clipPath>
    <clipPath
       id="clipPath8601"
       clipPathUnits="userSpaceOnUse">
      <path
         inkscape:connector-curvature="0"
         id="path8599"
         d="M 42.54,70.98 H 478.62 V 266.4 H 42.54 Z" />
    </clipPath>
    <clipPath
       id="clipPath8613"
       clipPathUnits="userSpaceOnUse">
      <path
         inkscape:connector-curvature="0"
         id="path8611"
         d="M 42.54,70.98 H 478.62 V 266.4 H 42.54 Z" />
    </clipPath>
    <clipPath
       id="clipPath8625"
       clipPathUnits="userSpaceOnUse">
      <path
         inkscape:connector-curvature="0"
         id="path8623"
         d="M 42.54,70.98 H 478.62 V 266.4 H 42.54 Z" />
    </clipPath>
    <clipPath
       id="clipPath8637"
       clipPathUnits="userSpaceOnUse">
      <path
         inkscape:connector-curvature="0"
         id="path8635"
         d="M 42.54,70.98 H 478.62 V 266.4 H 42.54 Z" />
    </clipPath>
    <clipPath
       id="clipPath8645"
       clipPathUnits="userSpaceOnUse">
      <path
         inkscape:connector-curvature="0"
         id="path8643"
         d="M 42.54,70.98 H 478.62 V 266.4 H 42.54 Z" />
    </clipPath>
    <clipPath
       id="clipPath8653"
       clipPathUnits="userSpaceOnUse">
      <path
         inkscape:connector-curvature="0"
         id="path8651"
         d="m 42.55,301.27 h 63.123 v 29.15 H 42.55 Z" />
    </clipPath>
    <clipPath
       id="clipPath9678"
       clipPathUnits="userSpaceOnUse">
      <path
         inkscape:connector-curvature="0"
         id="path9676"
         d="M 0,595.276 H 841.89 V 0 H 0 Z" />
    </clipPath>
  </defs>
  <sodipodi:namedview
     id="base"
     pagecolor="#ffffff"
     bordercolor="#666666"
     borderopacity="1.0"
     inkscape:pageopacity="0.0"
     inkscape:pageshadow="2"
     inkscape:zoom="0.7384571"
     inkscape:cx="414.1908"
     inkscape:cy="360.88759"
     inkscape:document-units="mm"
     inkscape:current-layer="layer1"
     showgrid="false"
     fit-margin-top="0"
     fit-margin-left="0"
     fit-margin-right="0"
     fit-margin-bottom="0"
     inkscape:window-width="1280"
     inkscape:window-height="744"
     inkscape:window-x="-4"
     inkscape:window-y="-4"
     inkscape:window-maximized="1" />
  <metadata
     id="metadata5">
    <rdf:RDF>
      <cc:Work
         rdf:about="">
        <dc:format>image/svg+xml</dc:format>
        <dc:type
           rdf:resource="http://purl.org/dc/dcmitype/StillImage" />
        <dc:title></dc:title>
      </cc:Work>
    </rdf:RDF>
  </metadata>
  <g
     inkscape:label="Layer 1"
     inkscape:groupmode="layer"
     id="layer1"
     transform="translate(132.0225,-52.3485)">
    <g
       id="g9709"
       transform="translate(1,-0.99999427)">
      <path
         inkscape:connector-curvature="0"
         id="path9680"
         style="fill:#ffffff;fill-opacity:1;fill-rule:nonzero;stroke:none;stroke-width:0.35277778"
         d="M 27.503785,238.21337 C 80.454317,221.33366 100.57288,167.63277 72.439559,118.27281 44.306238,68.911434 -21.426139,42.575515 -74.373849,59.454873 -127.32473,76.333526 -147.44153,130.03477 -119.30821,179.39649 c 28.133673,49.35961 93.864285,75.69235 146.811995,58.81688" />
      <path
         inkscape:connector-curvature="0"
         id="path9682"
         style="fill:#ffffff;fill-opacity:1;fill-rule:nonzero;stroke:none;stroke-width:0.35277778"
         d="M 27.503785,238.21337 C 80.454317,221.33366 100.57288,167.63277 72.439559,118.27281 44.306238,68.911434 -21.426139,42.575515 -74.373849,59.454873 -127.32473,76.333526 -147.44153,130.03477 -119.30821,179.39649 c 28.133673,49.35961 93.864285,75.69235 146.811995,58.81688" />
      <path
         inkscape:connector-curvature="0"
         id="path9684"
         style="fill:#062849;fill-opacity:1;fill-rule:nonzero;stroke:none;stroke-width:0.35277778"
         d="m -11.85422,165.85547 c -1.695097,5.58941 -5.731933,10.83169 -11.365088,14.75916 -5.633508,3.92536 -12.214225,6.08824 -18.533886,6.08824 h -23.425149 -1.349023 -0.714022 l 0.207434,-0.68227 0.349955,-1.15217 5.064478,-16.70967 0.206022,-0.67981 0.113594,-0.37535 h 0.392995 0.793397 9.472789 5.688894 c 0,0 0.317853,0.0155 0.2921,0.0155 3.746853,0 6.795558,-2.66841 6.795558,-5.94572 0,-1.28481 -0.461433,-2.50895 -1.334205,-3.53906 0.0042,0.005 -0.474486,-0.54469 -0.4826,-0.55598 l -12.188825,-14.85935 c 0,0 -0.403225,-0.48895 -0.403225,-0.49142 l 0.01729,-0.009 c -3.059289,-4.03895 -3.837869,-9.24419 -2.173111,-14.73906 1.694744,-5.5887 5.729817,-10.83027 11.365089,-14.75704 5.632802,-3.92677 12.214577,-6.0893 18.533885,-6.0893 h 23.3856387 1.34937501 0.71225832 l -0.20531666,0.68227 -0.34995555,1.15323 -5.06518322,16.70932 -0.2053167,0.6791 -0.1135944,0.37535 H -5.4153197 -6.2111864 -21.597942 v 0.0138 c -3.747558,0 -6.795558,2.66735 -6.795558,5.94501 0,1.28658 0.461081,2.50931 1.338792,3.54083 0,0 1.10243,1.31798 1.106311,1.32221 l 11.535127,14.06067 c 0,0 0.365831,0.44379 0.363714,0.44556 l -0.01446,0.01 c 3.088217,4.04672 3.87985,9.2703 2.2098,14.78492 m 78.386868,-45.7006 c -2.33433,-4.09575 -4.948414,-8.01934 -7.804502,-11.76549 l -4.937478,16.28881 -0.203906,0.6791 -0.116416,0.37535 H 53.080879 52.28466 36.897199 v 0.0138 c -3.74897,0 -6.79697,2.66735 -6.79697,5.94501 0,1.28658 0.462845,2.50931 1.338087,3.54083 0,0 1.104547,1.31798 1.109133,1.32221 0,0 11.532305,14.06173 11.536186,14.06631 l 0.376414,0.46532 -0.01376,0.006 c 3.076222,4.04248 3.861153,9.25795 2.19322,14.76375 -1.695097,5.58941 -5.73017,10.83169 -11.366147,14.75916 -5.630686,3.92536 -12.214225,6.08824 -18.53318,6.08824 H -6.6824975 -8.0343419 -8.7458946 l 0.2060222,-0.68227 0.34925,-1.15217 5.0641249,-16.70967 0.2060222,-0.67981 0.1135944,-0.37535 h 0.3929944 0.7965723 9.4696136 5.6913636 c 0,0 0.315736,0.0155 0.291395,0.0155 3.748263,0 6.793794,-2.66841 6.793794,-5.94572 0,-1.28481 -0.461081,-2.50895 -1.334558,-3.53906 0.0049,0.005 -0.472017,-0.54469 -0.480131,-0.55598 L 6.6260439,142.21936 6.2372828,141.7484 l 0.015169,-0.0116 c -3.071636,-4.04107 -3.8544499,-9.25336 -2.1861638,-14.7567 1.6950972,-5.5887 5.7298165,-10.83027 11.36262,-14.75704 5.631391,-3.92677 12.216341,-6.0893 18.536708,-6.0893 H 56.965668 C 32.749591,76.011792 -7.3929919,58.332334 -45.401974,60.328704 l -5.937603,19.589044 -0.206375,0.678391 -0.113594,0.377473 h -0.392289 -0.79622 -20.198644 -3.442758 -0.714375 l 0.206022,-0.684742 0.349603,-1.151467 4.172655,-13.763624 c -48.754588,16.278577 -67.104328,66.206511 -40.927508,112.138881 1.37759,2.41512 2.85538,4.77132 4.41924,7.06614 l 23.472071,-77.43719 0.20567,-0.67804 0.113947,-0.37536 h 0.392289 2.889603 20.198644 1.351139 0.712611 l -0.208492,0.68263 -0.34925,1.15182 -23.590249,77.82842 -0.20567,0.67839 -0.113947,0.3743 h -0.392642 -0.795514 -20.19864 -1.92441 c 28.908378,40.24982 85.544027,60.64461 131.79284,45.90203 49.689101,-15.83831 68.56624,-66.23015 42.166468,-112.55093" />
    </g>
  </g>
</svg>
