<?xml version="1.0" encoding="UTF-8" standalone="no"?>
<!-- Created with Inkscape (http://www.inkscape.org/) -->

<svg
   xmlns:dc="http://purl.org/dc/elements/1.1/"
   xmlns:cc="http://creativecommons.org/ns#"
   xmlns:rdf="http://www.w3.org/1999/02/22-rdf-syntax-ns#"
   xmlns:svg="http://www.w3.org/2000/svg"
   xmlns="http://www.w3.org/2000/svg"
   xmlns:sodipodi="http://sodipodi.sourceforge.net/DTD/sodipodi-0.dtd"
   xmlns:inkscape="http://www.inkscape.org/namespaces/inkscape"
   width="125.69053"
   height="32.16658"
   viewBox="0 0 33.255618 8.5107409"
   version="1.1"
   id="svg4514"
   inkscape:version="0.92.0 r15299"
   sodipodi:docname="ncc group.svg">
  <defs
     id="defs4508">
    <clipPath
       id="clipPath4085"
       clipPathUnits="userSpaceOnUse">
      <path
         inkscape:connector-curvature="0"
         id="path4083"
         d="m 473.173,20.811 h 95.881 v 24.544 h -95.881 z" />
    </clipPath>
  </defs>
  <sodipodi:namedview
     id="base"
     pagecolor="#ffffff"
     bordercolor="#666666"
     borderopacity="1.0"
     inkscape:pageopacity="0.0"
     inkscape:pageshadow="2"
     inkscape:zoom="7.1938101"
     inkscape:cx="62.345266"
     inkscape:cy="15.583294"
     inkscape:document-units="mm"
     inkscape:current-layer="layer1"
     showgrid="false"
     fit-margin-top="0"
     fit-margin-left="0"
     fit-margin-right="0"
     fit-margin-bottom="0"
     units="px"
     inkscape:window-width="1280"
     inkscape:window-height="744"
     inkscape:window-x="-4"
     inkscape:window-y="-4"
     inkscape:window-maximized="1" />
  <metadata
     id="metadata4511">
    <rdf:RDF>
      <cc:Work
         rdf:about="">
        <dc:format>image/svg+xml</dc:format>
        <dc:type
           rdf:resource="http://purl.org/dc/dcmitype/StillImage" />
        <dc:title></dc:title>
      </cc:Work>
    </rdf:RDF>
  </metadata>
  <g
     inkscape:label="Layer 1"
     inkscape:groupmode="layer"
     id="layer1"
     transform="translate(59.5848,-45.41591)">
    <g
       id="g4649"
       transform="translate(0.13229155,-0.13229107)">
      <path
         d="m -53.513353,49.27383 c 0.397933,0 0.752828,0.183092 0.975078,0.501297 l 0.01693,0.0247 0.513292,-0.513292 -0.01482,-0.01764 c -0.04057,-0.04868 -0.07832,-0.09066 -0.115005,-0.128058 -0.381706,-0.388409 -0.853723,-0.585259 -1.40335,-0.585259 -0.51435,0 -1.008239,0.225073 -1.389945,0.634295 -0.349955,0.371475 -0.535164,0.849489 -0.535164,1.381478 0,0.51188 0.210609,1.036461 0.563386,1.402644 0.372886,0.393347 0.842786,0.592667 1.396295,0.592667 0.54363,0 1.033639,-0.221898 1.417814,-0.641703 l 0.05962,-0.0695 0.01446,-0.01729 -0.512939,-0.513292 -0.01729,0.02434 c -0.222603,0.317147 -0.572911,0.49918 -0.961672,0.49918 -0.691797,0 -1.213909,-0.552097 -1.213909,-1.284111 0,-0.735894 0.518937,-1.290461 1.207206,-1.290461"
         style="fill:#9b1627;fill-opacity:1;fill-rule:nonzero;stroke:none;stroke-width:0.35277778"
         id="path4089"
         inkscape:connector-curvature="0" />
      <path
         d="m -48.731592,51.224232 c -0.210608,0.390878 -0.598664,0.624064 -1.038225,0.624064 -0.692503,0 -1.213908,-0.552097 -1.213908,-1.284111 0,-0.735895 0.518583,-1.290461 1.206852,-1.290461 0.449792,0 0.842787,0.234244 1.050925,0.626886 l 0.01588,0.02999 0.52705,-0.52705 -0.01235,-0.01729 c -0.0635,-0.08784 -0.132291,-0.170392 -0.206375,-0.245534 -0.381353,-0.388408 -0.853369,-0.585258 -1.40335,-0.585258 -0.51435,0 -1.007886,0.225072 -1.389239,0.634295 -0.350308,0.371827 -0.535516,0.849488 -0.535516,1.38183 0,0.511528 0.210608,1.036108 0.563386,1.402292 0.372886,0.393347 0.842786,0.592666 1.396647,0.592666 0.543278,0 1.033286,-0.221544 1.417461,-0.641702 0.0508,-0.05609 0.09984,-0.117828 0.149225,-0.188384 l 0.01199,-0.01729 -0.524581,-0.52458 z"
         style="fill:#9b1627;fill-opacity:1;fill-rule:nonzero;stroke:none;stroke-width:0.35277778"
         id="path4093"
         inkscape:connector-curvature="0" />
      <path
         d="m -57.789161,48.540228 c -0.956733,0 -1.795639,0.778581 -1.795639,1.673578 v 2.252839 h 0.775758 l 7.06e-4,-2.263423 c 0,-0.500944 0.547864,-0.889352 1.019175,-0.889352 0.471311,0 1.019175,0.388408 1.019175,0.889352 h 0.02434 l -0.02505,0.0092 0.0011,2.25425 h 0.775758 v -2.2606 c 0,-0.887236 -0.838905,-1.665817 -1.795286,-1.665817"
         style="fill:#9b1627;fill-opacity:1;fill-rule:nonzero;stroke:none;stroke-width:0.35277778"
         id="path4097"
         inkscape:connector-curvature="0" />
      <path
         d="m -39.652997,51.937337 c -0.777169,0 -1.363486,-0.617361 -1.363486,-1.436158 0,-0.821973 0.583142,-1.442156 1.35643,-1.442156 0.773289,0 1.356784,0.617361 1.356784,1.435806 0,0.822325 -0.58032,1.442508 -1.349728,1.442508 m 1.901119,-1.478492 c 0,-0.499533 -0.20073,-0.979311 -0.565502,-1.351138 -0.372886,-0.379589 -0.83432,-0.572206 -1.3716,-0.572206 -0.501298,0 -0.982486,0.220486 -1.355725,0.620889 -0.347486,0.368653 -0.523523,0.823383 -0.523523,1.352903 0,0.500944 0.206023,1.014236 0.551392,1.373011 0.364067,0.383822 0.822678,0.578555 1.363839,0.578555 0.529872,0 1.008592,-0.217311 1.383594,-0.627239 0.328789,-0.363714 0.517525,-0.865011 0.517525,-1.374775"
         style="fill:#9b1627;fill-opacity:1;fill-rule:nonzero;stroke:none;stroke-width:0.35277778"
         id="path4101"
         inkscape:connector-curvature="0" />
      <path
         d="m -45.816765,52.000484 c -0.777522,0 -1.363839,-0.617361 -1.363839,-1.435806 0,-0.822677 0.583495,-1.442861 1.356783,-1.442861 0.773289,0 1.356431,0.617714 1.356431,1.435806 0,0.822678 -0.580319,1.442861 -1.349375,1.442861 m 0.02152,1.926167 c 1.176867,0 1.8796,-0.772936 1.8796,-2.067278 v -1.340556 c -0.0011,-0.498122 -0.201436,-0.977194 -0.565502,-1.347963 -0.372886,-0.379589 -0.83432,-0.572206 -1.371953,-0.572206 -0.500592,0 -0.982133,0.220486 -1.355725,0.620889 -0.347133,0.368653 -0.52317,0.823736 -0.52317,1.352903 0,0.500944 0.206023,1.014588 0.551392,1.373011 0.364067,0.383822 0.822678,0.578202 1.363839,0.578202 0.460728,0 0.872067,-0.157691 1.223786,-0.469547 l 0.143228,-0.127 -0.0046,0.191559 c -0.01905,0.794102 -0.575381,1.327502 -1.3843,1.327502 -0.465314,0 -0.833614,-0.191205 -1.067506,-0.553508 h -0.573264 c 0.277636,0.658636 0.884767,1.033992 1.684161,1.033992"
         style="fill:#9b1627;fill-opacity:1;fill-rule:nonzero;stroke:none;stroke-width:0.35277778"
         id="path4105"
         inkscape:connector-curvature="0" />
      <path
         d="m -41.626154,49.152792 v -0.562681 c -0.444853,0.04269 -0.869244,0.26035 -1.202619,0.618067 -0.342195,0.363008 -0.519289,0.810683 -0.52705,1.330678 l -0.0011,0.04092 v 1.837619 h 0.585611 v -1.873602 c 0.0088,-0.72002 0.486834,-1.294695 1.145117,-1.391003"
         style="fill:#9b1627;fill-opacity:1;fill-rule:nonzero;stroke:none;stroke-width:0.35277778"
         id="path4109"
         inkscape:connector-curvature="0" />
      <path
         d="m -33.819181,48.708927 h -0.583142 l -0.0035,2.301875 c -0.04798,0.551744 -0.633237,0.955675 -1.159228,0.955675 -0.525992,0 -1.11125,-0.403931 -1.159228,-0.955675 h -0.0025 l -0.0011,-0.08361 v -2.218267 h -0.583141 v 2.218267 c 0,0.866422 0.815975,1.619602 1.745897,1.619602 0.929922,0 1.745897,-0.75318 1.745897,-1.611488 z"
         style="fill:#9b1627;fill-opacity:1;fill-rule:nonzero;stroke:none;stroke-width:0.35277778"
         id="path4113"
         inkscape:connector-curvature="0" />
      <path
         d="m -31.426537,52.000484 c -0.777522,0 -1.363486,-0.617361 -1.363486,-1.435806 0,-0.822677 0.582789,-1.442861 1.35643,-1.442861 0.773289,0 1.356431,0.617714 1.356431,1.435806 0,0.822678 -0.579614,1.442861 -1.349375,1.442861 m 1.901119,-1.478492 c 0,-0.499533 -0.20073,-0.979664 -0.56515,-1.351138 -0.372886,-0.379589 -0.834672,-0.572206 -1.371952,-0.572206 -0.500945,0 -0.982486,0.220486 -1.355725,0.620889 -0.347486,0.368653 -0.523523,0.823736 -0.523523,1.352903 v 3.27025 h 0.552098 v -1.884187 l 0.138289,0.120298 c 0.339019,0.295275 0.751416,0.444852 1.224844,0.444852 0.530225,0 1.008944,-0.216958 1.383947,-0.626886 0.328436,-0.363714 0.517172,-0.864658 0.517172,-1.374775"
         style="fill:#9b1627;fill-opacity:1;fill-rule:nonzero;stroke:none;stroke-width:0.35277778"
         id="path4117"
         inkscape:connector-curvature="0" />
      <path
         d="m -26.593764,47.232728 -0.0032,-0.05009 c -0.0381,-0.01976 -0.0829,-0.04022 -0.137231,-0.06209 -0.426155,-0.170745 -0.697794,0.04127 -0.731308,0.07338 l -0.07585,0.07091 c 0.264936,0.01305 0.480483,0.116416 0.601486,0.124883 0.117122,0.0078 0.235656,-0.03845 0.346075,-0.156986"
         style="fill:#9b1627;fill-opacity:1;fill-rule:nonzero;stroke:none;stroke-width:0.35277778"
         id="path4121"
         inkscape:connector-curvature="0" />
      <path
         d="m -28.071585,47.12633 c -0.07867,0.121003 -0.187678,0.223661 -0.31115,0.287867 h 0.03739 c 0.239889,0.0095 0.470606,-0.14605 0.607837,-0.358775 0.07232,-0.11042 0.159455,-0.187325 0.253294,-0.239184 -0.198614,-0.0095 -0.449792,0.09913 -0.587375,0.310092"
         style="fill:#9b1627;fill-opacity:1;fill-rule:nonzero;stroke:none;stroke-width:0.35277778"
         id="path4125"
         inkscape:connector-curvature="0" />
      <path
         d="m -26.857183,47.777523 c -0.354894,0.01693 -0.676275,-0.334433 -1.075619,-0.213078 -0.20955,0.0635 -0.357364,0.285045 -0.644878,0.372181 -0.42545,0.129469 -0.66922,-0.190853 -1.081617,-0.06526 -0.04657,0.01411 -0.09172,0.03493 -0.134761,0.06279 0.174978,0.452261 0.545394,0.825853 1.041047,0.98425 0.868539,0.277284 1.807281,-0.206727 2.084564,-1.075619 0.01482,-0.04657 0.0187,-0.06773 0.02963,-0.1143 -0.06738,0.02258 -0.134761,0.04516 -0.218369,0.04904"
         style="fill:#9b1627;fill-opacity:1;fill-rule:nonzero;stroke:none;stroke-width:0.35277778"
         id="path4129"
         inkscape:connector-curvature="0" />
      <path
         d="m -29.179307,47.78539 c 0.193322,0.04445 0.335492,0.0568 0.471311,0.01588 0.138642,-0.04269 0.25012,-0.09878 0.365125,-0.19685 -0.05468,-0.0067 -0.112889,-0.01799 -0.177094,-0.03281 -0.366536,-0.08431 -0.597253,0.0762 -0.649817,0.134761 0.06668,-0.09772 0.166158,-0.160161 0.270581,-0.199672 -0.162984,0.0025 -0.500239,0.03669 -0.657225,0.266347 l -0.01058,0.01517 c -0.0064,-0.02258 0.14605,-0.34925 0.582789,-0.37465 0.437092,-0.02505 0.591961,-0.14605 0.826558,-0.60078 0.02187,-0.04163 0.212373,-0.388761 0.773289,-0.339373 0.136878,0.012 0.242006,0.07267 0.441325,-0.02434 l 0.06632,-0.03881 c -0.201437,-0.306916 -0.492125,-0.531989 -0.867128,-0.65158 -0.868892,-0.277284 -1.807281,0.206727 -2.084211,1.075266 -0.118181,0.369359 -0.09807,0.751417 0.03034,1.089378 0.09737,-0.07514 0.310797,-0.208844 0.618419,-0.137936"
         style="fill:#9b1627;fill-opacity:1;fill-rule:nonzero;stroke:none;stroke-width:0.35277778"
         id="path4133"
         inkscape:connector-curvature="0" />
    </g>
  </g>
</svg>
